<svg width="454" height="74" viewBox="0 0 454 74" xmlns="http://www.w3.org/2000/svg">
    <g fill-rule="nonzero" fill="none">
        <path fill="#000" d="M228.21.65h1.32v73.18h-1.32z"></path>
        <g fill="#000">
            <path d="M286.67 16.35c0-3.08 2.29-5.5 4.99-5.5 1.29 0 2.3.48 2.94 1.24l.3-1.19h1.21v4.13h-1.21c-.68-1.92-1.68-3.02-3.05-3.02-1.65 0-2.87 1.18-2.87 4.21 0 2.84 1.14 4.32 3.15 4.32 1.75 0 2.75-1.38 3.02-3.16h1.3c-.27 2.76-2.02 4.43-4.62 4.43-3.13 0-5.16-2.33-5.16-5.46ZM306.85 18.03h-3.68l-.83 2.33h1.32v1.19h-3.83v-1.19h1.14l3.51-9.32h2.03l3.38 9.32h1.37v1.19h-5.16v-1.19h1.56l-.81-2.33Zm-3.3-1.06h2.94l-1.4-4.11h-.06l-1.48 4.11ZM320.05 11.11v1.18h-1.68v8.1h2.03c1.27 0 1.51-.29 2.27-2.89h.95v4.07h-8.93v-1.19h1.62v-8.07h-1.62v-1.19h5.36v-.01ZM327.93 20.37h1.64V12.3h-1.64v-1.19h5.32v1.19h-1.64v8.07h1.64v1.19h-5.32zM337.5 20.37h1.62V12.3h-1.62v-1.19h9.34v3.62h-1.02c-.59-2.08-.91-2.45-2.18-2.45h-2.48v3.59h.81c1.05 0 1.22-.19 1.43-1.56h1.02v4.26h-1.02c-.17-1.43-.38-1.64-1.43-1.64h-.81v3.43h1.86v1.19h-5.53v-1.18h.01ZM350.97 16.35c0-3.19 2.35-5.5 5.23-5.5 2.95 0 5.23 2.22 5.23 5.46 0 3.21-2.35 5.5-5.23 5.5-2.96 0-5.23-2.22-5.23-5.46Zm8.15-.02c0-2.83-1.03-4.32-2.94-4.32s-2.91 1.51-2.91 4.32c0 2.81 1.03 4.32 2.94 4.32s2.91-1.49 2.91-4.32ZM369.31 20.37h1.62v1.19h-5.29v-1.19h1.62V12.3h-1.62v-1.19h5.4c3.18 0 4.11 1.37 4.11 2.68 0 1.16-.7 2.26-2.89 2.56v.13c1.76.29 2.32 1.11 2.4 2.27l.06.94c.05.57.19.76.48.76.25 0 .44-.22.68-.79l.79.32c-.32 1.05-.92 1.78-2.02 1.78-1.25 0-2.07-.62-2.1-2.18l-.02-.97c-.02-1.11-.27-1.62-1.64-1.62h-1.6v3.38h.02Zm1.56-4.5c1.51 0 2.03-.64 2.03-1.89 0-1.11-.44-1.7-1.89-1.7h-1.7v3.59h1.56ZM383 13.38h-.14v6.99h1.56v1.19h-4.34v-1.19h1.49V12.3h-1.49v-1.19h3.89l4.89 7.5h.14V12.3h-1.56v-1.19h4.34v1.19h-1.49v9.47h-1.81zM395.93 20.37h1.64V12.3h-1.64v-1.19h5.32v1.19h-1.64v8.07h1.64v1.19h-5.32zM411.94 18.03h-3.68l-.83 2.33h1.32v1.19h-3.83v-1.19h1.14l3.51-9.32h2.03l3.38 9.32h1.37v1.19h-5.16v-1.19h1.56l-.81-2.33Zm-3.31-1.06h2.94l-1.4-4.11h-.06l-1.48 4.11ZM249.69 38.87h1.14c.97 1.97 1.75 2.73 3.32 2.73 1.19 0 1.89-.6 1.89-1.59 0-1.14-1.22-1.45-2.72-1.84-1.68-.44-3.51-1.02-3.51-3.24 0-1.73 1.45-3.16 3.46-3.16.98 0 2.03.41 2.6 1.13l.33-1.08h1.19v3.65h-1.14c-.83-1.92-1.7-2.57-2.95-2.57-1.03 0-1.64.62-1.64 1.48 0 1.25 1.29 1.54 2.79 1.92 1.65.4 3.43.92 3.43 3.1 0 1.91-1.54 3.34-3.67 3.34-1.22 0-2.35-.46-2.97-1.19l-.37 1.14h-1.21v-3.82h.03ZM264.19 41.28h1.76v-8.24h-.57c-1.35 0-1.64.44-2.33 2.91h-.97v-3.92h9.78v3.92h-.97c-.7-2.46-.98-2.91-2.33-2.91h-.57v8.24h1.76v1.19h-5.56v-1.19ZM281.8 38.95h-3.68l-.83 2.33h1.32v1.19h-3.83v-1.19h1.14l3.51-9.32h2.03l3.38 9.32h1.37v1.19h-5.16v-1.19h1.56l-.81-2.33Zm-3.3-1.07h2.94l-1.4-4.11h-.06l-1.48 4.11ZM291.07 41.28h1.76v-8.24h-.57c-1.35 0-1.64.44-2.33 2.91h-.97v-3.92h9.78v3.92h-.97c-.7-2.46-.98-2.91-2.33-2.91h-.57v8.24h1.76v1.19h-5.56v-1.19ZM302.94 41.28h1.62v-8.07h-1.62v-1.19h9.55v3.54h-1.02c-.51-1.94-.7-2.37-1.97-2.37h-2.89v3.4h1c1.05 0 1.18-.16 1.43-1.54h1.02v4.19h-1.02c-.22-1.41-.38-1.57-1.43-1.57h-1v3.62h2.83c1.49 0 1.68-.52 2.18-2.72h1.02v3.89h-9.69v-1.18h-.01ZM324.46 39.12v-5.91H323v-1.19h5.02v1.19h-1.51v5.46c0 1.99.94 2.72 2.73 2.72.81 0 1.37-.25 1.79-.68.51-.51.65-1.22.65-2.38v-5.11h-1.54v-1.19h4.26v1.19h-1.41v5.88c0 1.94-1.41 3.64-4.22 3.64-2.87-.01-4.31-1.44-4.31-3.62ZM341.27 34.3h-.14v6.99h1.56v1.19h-4.34v-1.19h1.49v-8.07h-1.49v-1.19h3.89l4.89 7.5h.14v-6.31h-1.56v-1.19h4.34v1.19h-1.49v9.47h-1.81zM354.2 41.28h1.64v-8.07h-1.64v-1.19h5.32v1.19h-1.64v8.07h1.64v1.19h-5.32zM364.6 33.22h-1.37v-1.19h5.16v1.19h-1.56l2.56 7.27h.13l2.65-7.27h-1.32v-1.19h3.83v1.19h-1.14l-3.59 9.32h-1.86zM378.2 41.28h1.62v-8.07h-1.62v-1.19h9.55v3.54h-1.02c-.51-1.94-.7-2.37-1.97-2.37h-2.89v3.4h1c1.05 0 1.18-.16 1.43-1.54h1.02v4.19h-1.02c-.22-1.41-.38-1.57-1.43-1.57h-1v3.62h2.83c1.49 0 1.68-.52 2.18-2.72h1.02v3.89h-9.69v-1.18h-.01ZM396.03 41.28h1.62v1.19h-5.29v-1.19h1.62v-8.07h-1.62v-1.19h5.4c3.18 0 4.11 1.37 4.11 2.68 0 1.16-.7 2.26-2.89 2.56v.13c1.76.29 2.32 1.11 2.4 2.27l.06.94c.05.57.19.76.48.76.25 0 .44-.22.68-.79l.79.32c-.32 1.05-.92 1.78-2.02 1.78-1.25 0-2.07-.62-2.1-2.18l-.02-.97c-.02-1.11-.27-1.62-1.64-1.62h-1.6v3.38h.02Zm1.56-4.49c1.51 0 2.03-.64 2.03-1.89 0-1.11-.44-1.7-1.89-1.7h-1.7v3.59h1.56ZM407.07 38.87h1.14c.97 1.97 1.75 2.73 3.32 2.73 1.19 0 1.89-.6 1.89-1.59 0-1.14-1.22-1.45-2.72-1.84-1.68-.44-3.51-1.02-3.51-3.24 0-1.73 1.45-3.16 3.46-3.16.98 0 2.03.41 2.6 1.13l.33-1.08h1.19v3.65h-1.14c-.83-1.92-1.7-2.57-2.95-2.57-1.03 0-1.64.62-1.64 1.48 0 1.25 1.29 1.54 2.79 1.92 1.65.4 3.43.92 3.43 3.1 0 1.91-1.54 3.34-3.67 3.34-1.22 0-2.35-.46-2.97-1.19l-.37 1.14h-1.21v-3.82h.03ZM419.61 41.28h1.64v-8.07h-1.64v-1.19h5.32v1.19h-1.64v8.07h1.64v1.19h-5.32zM431.41 41.28h1.76v-8.24h-.57c-1.35 0-1.64.44-2.33 2.91h-.97v-3.92h9.78v3.92h-.97c-.7-2.46-.98-2.91-2.33-2.91h-.57v8.24h1.76v1.19h-5.56v-1.19ZM450.82 33.2h-1.29v-1.18h3.83v1.19h-1.19l-3.03 4.89v3.18h1.52v1.19h-5.07v-1.19h1.49v-3.1l-2.94-4.97h-1.21v-1.19h4.91v1.18h-1.32l2.1 3.8zM284.82 55.2h-.14v6.99h1.56v1.19h-4.34v-1.19h1.49v-8.07h-1.49v-1.19h3.89l4.89 7.5h.14v-6.31h-1.56v-1.19h4.34v1.19h-1.49v9.47h-1.81zM297.69 58.17c0-3.19 2.35-5.5 5.23-5.5 2.95 0 5.23 2.22 5.23 5.46 0 3.21-2.35 5.5-5.23 5.5-2.96 0-5.23-2.22-5.23-5.46Zm8.15-.02c0-2.83-1.03-4.32-2.94-4.32s-2.91 1.51-2.91 4.32c0 2.81 1.03 4.32 2.94 4.32s2.91-1.49 2.91-4.32ZM316.03 62.18h1.62v1.19h-5.29v-1.19h1.62v-8.07h-1.62v-1.19h5.4c3.18 0 4.11 1.37 4.11 2.68 0 1.16-.7 2.26-2.89 2.56v.13c1.76.29 2.32 1.11 2.4 2.27l.06.94c.05.57.19.76.48.76.25 0 .44-.22.68-.79l.79.32c-.32 1.05-.92 1.78-2.02 1.78-1.25 0-2.07-.62-2.1-2.18l-.02-.97c-.02-1.11-.27-1.62-1.64-1.62h-1.6v3.38h.02Zm1.56-4.49c1.51 0 2.03-.64 2.03-1.89 0-1.11-.44-1.7-1.89-1.7h-1.7v3.59h1.56ZM328.72 62.18h1.76v-8.24h-.57c-1.35 0-1.64.44-2.33 2.91h-.97v-3.92h9.78v3.92h-.97c-.7-2.46-.98-2.91-2.33-2.91h-.57v8.24h1.76v1.19h-5.56v-1.19ZM340.58 62.18h1.62v-8.07h-1.62v-1.19h5.15v1.19h-1.48v3.29h4.48v-3.29h-1.46v-1.19h5.13v1.19h-1.62v8.07h1.62v1.19h-5.13v-1.19h1.46v-3.67h-4.48v3.67h1.48v1.19h-5.15zM360.16 62.18h1.62v1.19h-5.29v-1.19h1.62v-8.07h-1.62v-1.19h5.4c3.18 0 4.11 1.37 4.11 2.68 0 1.16-.7 2.26-2.89 2.56v.13c1.76.29 2.32 1.11 2.4 2.27l.06.94c.05.57.19.76.48.76.25 0 .44-.22.68-.79l.79.32c-.32 1.05-.92 1.78-2.02 1.78-1.25 0-2.07-.62-2.1-2.18l-.02-.97c-.02-1.11-.27-1.62-1.64-1.62h-1.6v3.38h.02Zm1.56-4.49c1.51 0 2.03-.64 2.03-1.89 0-1.11-.44-1.7-1.89-1.7h-1.7v3.59h1.56ZM371.04 62.18h1.64v-8.07h-1.64v-1.19h5.32v1.19h-1.64v8.07h1.64v1.19h-5.32zM380.62 62.18h1.62v-8.07h-1.62v-1.19h4.59c4.05 0 6.05 2.06 6.05 5.11 0 2.97-1.86 5.34-5.94 5.34h-4.7v-1.19Zm4.76.02c2.53 0 3.56-1.1 3.56-4.16 0-2.76-1.06-3.94-3.68-3.94h-.97v8.1h1.09ZM400.63 63.63c-2.97 0-5-2.35-5-5.5 0-3.05 2.32-5.46 5-5.46 1.29 0 2.27.49 2.91 1.25l.32-1.21h1.21v4.07h-1.3c-.65-1.89-1.62-2.95-2.95-2.95-1.62 0-2.87 1.22-2.87 4.21 0 2.75 1.06 4.34 3.02 4.34.95 0 1.51-.48 1.84-1.02.29-.41.41-1.18.41-1.76v-.35h-1.86v-1.19h5.19v1.19h-1.3v4.24h-1.19l-.52-1.48c-.61.97-1.55 1.62-2.91 1.62ZM410.3 62.18h1.62v-8.07h-1.62v-1.19h9.55v3.54h-1.02c-.51-1.94-.7-2.37-1.97-2.37h-2.89v3.4h1c1.05 0 1.18-.16 1.43-1.54h1.02v4.19h-1.02c-.22-1.41-.38-1.57-1.43-1.57h-1v3.62h2.83c1.49 0 1.68-.52 2.18-2.72H420v3.89h-9.69v-1.18h-.01Z"></path></g>
            <g fill="#CE0E2D"><path d="M187.24 11.36v2.94c7.54.87 9.21 3.65 9.21 11.03v23.21h-.39L167.8 11.36H130.79v2.94c7.54.87 9.21 3.65 9.21 11.03v19.76c0 5.95-1.19 8.89-3.81 11.59-2.22 2.22-5.24 3.41-9.13 3.41-8.49 0-13.73-3.97-13.73-13.26V17.78c0-2.62 1.43-3.18 6.91-3.41v-3.02H88.07c-1.63 0-4.99.01-6.61-.24-1.65-.25-3.6-.98-5.23-1.29-1.81-.34-3.67-.44-5.51-.44-10.22 0-17.13 7.29-17.13 17.3 0 9.76 7.94 12.86 15.95 15.4 9.13 3.02 12.62 5.08 12.62 10.56 0 4.21-2.86 8.89-9.76 8.89-6.59 0-11.5-4.03-15.55-12.99h-3.9v16.41h3.37l2.66-2.38c3.09 1.51 8.02 2.38 12.3 2.38 13.41 0 18.65-8.97 18.65-17.78 0-9.84-7.78-12.94-15.08-15.32-8.73-2.78-12.62-4.52-12.62-9.92 0-5.16 3.57-8.33 8.41-8.33 5.79 0 10.65 2 13.25 9.38h3.33v-1.45c0-3.87 2.93-7.08 7.57-7.08 4.64 0 7.57 3.22 7.57 7.08v25.71c0 11.67 8.1 17.62 21.43 17.62s20.24-7.7 20.24-17.94v-25.4c0-3.87 2.91-7.11 7.55-7.11s7.55 3.25 7.55 7.11v28.02c0 7.54-1.03 10.08-8.1 11.11v2.94h20.56v-2.94c-7.62-.95-8.57-3.65-8.57-11.11V22.97l.29.01 31.81 41.97h5.2V25.33c0-7.38.55-10 7.62-11.03v-2.94h-20.7ZM29.58 59.99c-8.4 0-17.11-7.6-17.11-23.43 0-15.43 7.2-23.35 15.35-23.35 6.96 0 12.23 5.84 15.43 15.51h3.6V9.77h-3.2l-2.32 3.44c-3.28-1.84-8.24-3.44-13.27-3.44C12.39 9.77.39 21.68.39 37.83c0 15.75 9.68 27.11 26.31 27.11 11.43 0 18.55-6.34 22.31-14.97l-3.04-1.44c-3.76 7.6-8.95 11.46-16.39 11.46Z"></path></g>
            <path d="M210.06 61.38c0-2.3 1.74-3.98 4-3.98 2.28 0 4.02 1.68 4.02 3.98s-1.74 4.02-4.02 4.02c-2.26 0-4-1.72-4-4.02Zm7.42 0c0-2.06-1.34-3.47-3.42-3.47-2.04 0-3.4 1.41-3.4 3.47 0 2.08 1.36 3.51 3.4 3.51 2.08 0 3.42-1.43 3.42-3.51Zm-3.96 1.6h.65v.42h-2.03v-.42h.65V59.7h-.65v-.43h2.1c1.25 0 1.61.56 1.61 1.09 0 .43-.32.89-1.18.99v.05c.69.11.92.43.98.89l.04.42c.02.24.07.31.18.31.11 0 .2-.07.29-.33l.29.11c-.13.4-.36.69-.76.69-.45 0-.72-.24-.76-.85l-.02-.4c-.02-.43-.18-.65-.72-.65h-.67v1.39Zm.65-1.8c.58 0 .87-.27.87-.78 0-.47-.25-.71-.81-.71h-.71v1.48h.65v.01Z" fill="#000"></path></g>
</svg>