<svg xmlns="http://www.w3.org/2000/svg" version="1.0" preserveAspectRatio="xMidYMid meet" viewBox="81.3 175 449.7 443">
 <g fill="#bf1e2e">
  <path d="M325 614.6 c0 -2.8 0.4 -3.5 2.3 -3.8 2.2 -0.3 2.2 -0.5 2.5 -17.5 l0.2 -17.3 4.5 0 4.5 0 0 18.5 c0 18.4 0 18.6 -2.5 21 -1.8 1.9 -3.5 2.5 -7 2.5 -4.5 0 -4.5 0 -4.5 -3.4z"/>
  <path d="M346 597 l0 -21 4.5 0 4.5 0 0 21 0 21 -4.5 0 -4.5 0 0 -21z"/>
  <path d="M366.8 616.4 c-4.7 -2.5 -5.2 -4.7 -5.6 -23.1 l-0.4 -17.3 4.6 0 4.6 0 0 14.9 c0 8.2 0.4 16.1 1 17.5 1.2 3.2 5.4 3.6 7 0.7 0.6 -1.1 1 -8.7 1 -17.5 l0 -15.6 4.5 0 4.5 0 0 16 c0 18.1 -0.9 21.9 -5.9 24.4 -3.8 2 -11.7 2 -15.3 0z"/>
  <path d="M408 614.5 c0 -3 0.3 -3.5 2.4 -3.5 1.3 0 2.7 -0.7 3 -1.6 0.3 -0.9 0.6 -8.5 0.6 -17 l0 -15.4 4.6 0 4.6 0 -0.4 18.1 -0.3 18.1 -2.8 2.4 c-2.1 1.8 -4 2.4 -7.3 2.4 -4.4 0 -4.4 0 -4.4 -3.5z"/>
  <path d="M429 597 l0 -21 5 0 5 0 0 21 0 21 -5 0 -5 0 0 -21z"/>
  <path d="M451 601 l0 -17 -4 0 -4 0 0 -4 0 -4 12.5 0 12.5 0 0 4 0 4 -4 0 -4 0 0 17 0 17 -4.5 0 -4.5 0 0 -17z"/>
  <path d="M475.8 616.3 c-2.8 -1.8 -4.8 -5.2 -4.8 -8.3 0 -1.7 0.7 -2 4.5 -2 3.7 0 4.5 0.3 4.5 1.8 0 4.2 5.1 5.7 7 2.1 2 -3.6 0.4 -6.5 -5.3 -9.8 -2.9 -1.7 -6.1 -3.9 -7 -4.9 -2.6 -2.9 -3.7 -7.7 -2.6 -11.5 1.4 -5.1 4.1 -7 10.8 -7.5 5.3 -0.4 6.1 -0.2 9 2.4 1.7 1.6 3.4 4.4 3.7 6.2 l0.7 3.2 -4.7 0 c-3.8 0 -4.6 -0.3 -4.6 -1.8 0 -4.3 -4.4 -5.5 -6.2 -1.7 -1.4 3.1 0.3 5.2 7.7 9.4 5.3 3 8.5 7.5 8.5 12 0 3.9 -2.8 8.9 -5.9 10.5 -3.9 2.1 -11.9 2 -15.3 -0.1z"/>
  <path d="M507.1 616.6 c-4.5 -2.5 -5 -4.9 -5.1 -23.3 l0 -17.3 4.5 0 4.5 0 0.2 17.3 0.3 17.2 2.9 0.3 c1.6 0.2 3.2 -0.2 3.7 -1 0.5 -0.7 0.9 -8.6 0.9 -17.5 l0 -16.3 4.5 0 4.5 0 0 16 c0 18.1 -0.9 21.9 -5.9 24.4 -3.6 1.9 -11.7 2 -15 0.2z"/>
  <path d="M393 601.5 l0 -3.5 6.5 0 6.5 0 0 3.5 0 3.5 -6.5 0 -6.5 0 0 -3.5z"/>
  <path d="M81.3 563.7 c0.3 -0.7 12 -21.3 26.1 -45.6 14.1 -24.4 25.6 -44.5 25.6 -44.7 0 -0.3 -2.4 -2.8 -5.3 -5.7 -6.1 -6.1 -11.8 -16.4 -14.3 -25.7 -2.2 -8.6 -2.3 -26.1 -0.1 -35.3 6 -24.6 25.4 -40.7 54 -44.6 5.2 -0.7 45.4 -1.1 120.7 -1.1 l112.9 0 -40.2 -70.2 c-22.1 -38.6 -40.6 -70.3 -41.2 -70.4 -0.5 -0.2 -17.6 28.5 -37.9 63.7 -20.4 35.3 -37.5 64.3 -38.1 64.5 -0.6 0.3 -9.4 0.3 -19.7 0.2 l-18.6 -0.3 50.1 -86.7 c27.6 -47.8 50.4 -86.8 50.7 -86.8 0.6 0 117 201.4 117 202.3 0 0.4 -57.3 0.8 -127.2 0.9 -120.9 0.3 -127.6 0.4 -132.8 2.2 -17.8 6 -27.8 16.1 -31.1 31.7 -1.5 7.1 -0.6 27.1 1.5 33 1.6 4.4 7 11.9 8.5 11.9 0.5 0 9.2 -14.6 19.5 -32.5 l18.8 -32.5 19.4 0 c10.7 0 19.4 0.1 19.4 0.3 0 0.2 -9.9 17.4 -21.9 38.3 l-21.9 37.9 12.4 0.5 12.4 0.5 -4.8 8.5 -4.7 8.5 -12.9 0 -12.9 0 -3.1 6 c-2.6 5 -3.1 6.9 -3.1 12.9 0.1 8.4 2.3 13.4 8.4 18.9 7.8 7 1.4 6.7 130.3 6.7 l115.8 0 0 -70.5 0 -70.5 8.3 0 8.3 0 22.8 39.5 c12.5 21.7 23 39.5 23.3 39.5 0.3 0 0.3 -17.8 -0.1 -39.5 l-0.8 -39.5 5.6 0 5.6 0 0 48 0 48 -6.7 0 -6.8 0 -24 -39.6 c-13.2 -21.7 -24.4 -39.8 -24.9 -40.1 -0.6 -0.4 -0.7 2.1 -0.3 6.3 0.4 3.8 0.7 32 0.7 62.7 l0 55.7 44.4 0 44.3 0 9.2 16.4 c5 9 9.1 16.6 9.1 17 0 0.3 -101.3 0.6 -225.1 0.6 -185.5 0 -225 -0.2 -224.6 -1.3z"/>
  <path d="M197.3 486.3 c9.7 -17 9.9 -17.3 12.3 -17.3 1.3 0 2.4 0.3 2.4 0.8 -0.1 0.4 -2.2 4.3 -4.8 8.7 -4 6.6 -5.3 8.1 -7.6 8.3 -1.5 0.2 -2.6 0 -2.3 -0.5z"/>
  <path d="M210.2 484.8 c0.8 -1.3 3.2 -5.3 5.2 -9 3 -5.5 4.2 -6.8 6.2 -6.8 1.3 0 2.4 0.3 2.4 0.6 0 0.4 -2.1 4.4 -4.7 9 -4.3 7.5 -5.1 8.4 -7.7 8.4 -2.7 0 -2.8 -0.1 -1.4 -2.2z"/>
  <path d="M226.3 478 c4.5 -7.9 5.5 -9 7.8 -9 l2.8 0 -5.2 9 c-4.5 7.9 -5.5 9 -7.8 9 l-2.8 0 5.2 -9z"/>
  <path d="M234 486.6 c0 -0.2 2.2 -4.2 4.8 -8.8 4 -6.9 5.3 -8.4 7.6 -8.6 3.2 -0.4 3.3 -0.9 -3.6 11.1 -3.1 5.4 -4.4 6.7 -6.3 6.7 -1.4 0 -2.5 -0.2 -2.5 -0.4z"/>
  <path d="M255 486.3 c0.1 -0.5 1.6 -3.3 3.4 -6.3 l3.2 -5.5 16 -0.5 c10.4 -0.3 16.7 -0.9 18.2 -1.8 3.6 -2.1 6.2 -7.2 6.2 -12.2 0 -5.7 -1.6 -8.8 -5.9 -11.7 -3.2 -2.2 -4.3 -2.3 -22.1 -2.3 -20.9 0 -26.1 -1 -32.2 -6 -12.3 -10.2 -12.2 -32.2 0.2 -42 7.1 -5.6 9.6 -6 39.1 -6 14.8 0 26.9 0.2 26.9 0.4 0 0.3 -1.6 3.2 -3.5 6.5 l-3.6 6.1 -22.2 0 c-20.5 0 -22.5 0.2 -25.5 2 -7.9 4.8 -8.1 18.4 -0.4 23.7 2.3 1.5 5.7 1.9 24.2 2.3 23.9 0.6 26 1.1 32.6 8.2 5.5 5.8 6.9 9.5 6.9 18.3 0 7.1 -0.3 8.6 -3.1 13.5 -3.3 6 -9.9 11.2 -16.2 13 -4.2 1.1 -42.2 1.4 -42.2 0.3z"/>
  <path d="M347.8 485.7 c-12.2 -3.5 -18.1 -12.2 -19.8 -29.2 -0.5 -5.5 -1 -22.7 -1 -38.2 l0 -28.3 5.9 0 5.9 0 0.5 35.3 c0.5 37.9 0.8 40.5 5.8 46.2 3.8 4.3 8.1 5.7 17.4 5.7 12.3 -0.1 18.7 -4.2 21.4 -13.7 0.7 -2.6 1.1 -16.4 1.1 -38.7 l0 -34.8 6 0 6 0 0 34.8 c0 27.9 -0.3 36 -1.5 40.7 -2.6 10 -8.7 16.9 -17.4 19.6 -5.7 1.7 -24.9 2.1 -30.3 0.6z"/>
 </g>
</svg>